<svg width="92" height="28" viewBox="0 0 92 28" fill="none" xmlns="http://www.w3.org/2000/svg">
<path d="M19.0005 19.7617C21.4536 19.7617 23.4424 17.7725 23.4424 15.3193C23.4424 12.8662 21.4536 10.877 19.0005 10.877C16.5469 10.877 14.5581 12.8662 14.5581 15.3193C14.5581 17.7725 16.5469 19.7617 19.0005 19.7617Z" fill="#9C9CA3"/>
<path fill-rule="evenodd" clip-rule="evenodd" d="M14.5537 2.44629C14.6475 2.35352 14.7744 2.30078 14.9062 2.30078H22.9028C23.0352 2.30078 23.1621 2.35352 23.2554 2.44629L25.7578 4.93945H30.8623C32.4995 4.93945 33.8281 6.26855 33.8281 7.90527V22.7334C33.8281 24.3701 32.4995 25.6992 30.8623 25.6992H7.13721C5.5 25.6992 4.17139 24.3701 4.17139 22.7334V7.90527C4.17139 6.26855 5.5 4.93945 7.13721 4.93945H12.0513L14.5537 2.44629ZM25.6021 15.3193C25.6021 18.9648 22.6465 21.9209 19.0005 21.9209C15.3545 21.9209 12.3989 18.9648 12.3989 15.3193C12.3989 11.6738 15.3545 8.71777 19.0005 8.71777C22.6465 8.71777 25.6021 11.6738 25.6021 15.3193ZM29.6406 10.8594C29.6406 11.792 28.8843 12.5488 27.9517 12.5488C27.0186 12.5488 26.2622 11.792 26.2622 10.8594C26.2622 9.92578 27.0186 9.16992 27.9517 9.16992C28.8843 9.16992 29.6406 9.92578 29.6406 10.8594Z" fill="#9C9CA3"/>
<path fill-rule="evenodd" clip-rule="evenodd" d="M55 13.7788C55 7.27355 60.2736 2 66.7788 2H74.7974C81.3026 2 86.5762 7.27355 86.5762 13.7788C86.5762 20.2841 81.3026 25.5576 74.7974 25.5576H66.7788C60.2736 25.5576 55 20.2841 55 13.7788ZM82.4912 25.1885C87.5747 23.8828 91.332 19.2695 91.332 13.7783C91.332 8.28809 87.5747 3.6748 82.4912 2.36914C86.0913 4.56348 88.4951 8.52637 88.4951 13.0508V14.5068C88.4951 19.0312 86.0913 22.9941 82.4912 25.1885ZM71.7322 14.9851C72.4157 15.081 73.2419 15.8068 72.8373 16.9112L63.8899 16.91C63.3584 16.91 62.9272 16.4792 62.9272 15.9476C62.9272 15.629 63.0821 15.3467 63.3206 15.1716C63.48 15.0544 63.677 14.9851 63.8899 14.9851H66.4604L69.6465 9.43269L68.6466 7.68932C68.3823 7.22846 68.5413 6.64011 69.0028 6.37523C69.4634 6.11074 70.0518 6.26982 70.3169 6.73144L70.7572 7.49828L71.1975 6.73144C71.4618 6.26982 72.0501 6.10998 72.5116 6.37523C72.973 6.63934 73.1329 7.2277 72.8678 7.68932L68.6816 14.9851H71.7322ZM66.9841 17.9452L66.034 19.6014C65.7691 20.0622 65.1806 20.2217 64.7199 19.9568C64.2585 19.6927 64.0988 19.1044 64.3637 18.6427L65.0887 17.3793C65.8275 17.1916 66.4705 17.3427 66.9841 17.9452ZM77.6245 16.9112C78.1559 16.9112 78.5869 16.48 78.5869 15.9483C78.5869 15.4171 78.1559 14.9859 77.6245 14.9859H75.0539L72.1873 9.98984C71.4273 10.9275 71.3042 11.9562 71.7307 13.0633L75.4826 19.6014C75.7477 20.063 76.3361 20.2217 76.7967 19.9576C77.2582 19.6927 77.4171 19.1044 77.1529 18.6435L76.1591 16.9119L77.6245 16.9112Z" fill="#9C9CA3"/>
</svg>
