<svg width="12" height="21" viewBox="0 0 12 21" fill="none" xmlns="http://www.w3.org/2000/svg">
<path d="M0.128418 10.1138C0.128418 10.4956 0.274414 10.8213 0.577637 11.1133L9.3374 19.6821C9.57324 19.9292 9.8877 20.0527 10.2471 20.0527C10.9771 20.0527 11.5498 19.4912 11.5498 18.75C11.5498 18.3906 11.4038 18.0649 11.1567 17.8179L3.26172 10.1138L11.1567 2.40967C11.4038 2.15137 11.5498 1.82568 11.5498 1.46631C11.5498 0.736328 10.9771 0.174805 10.2471 0.174805C9.8877 0.174805 9.57324 0.29834 9.3374 0.54541L0.577637 9.11426C0.274414 9.40625 0.139648 9.73193 0.128418 10.1138Z" fill="#0A84FF"/>
</svg>
