<svg width="13" height="19" viewBox="0 0 13 19" fill="none" xmlns="http://www.w3.org/2000/svg">
<path d="M3.44531 9.01074C3.44531 10.9199 4.67383 12.2646 6.4668 12.2646C8.25146 12.2646 9.47998 10.9199 9.47998 9.01074V3.78955C9.47998 1.87207 8.25146 0.535645 6.4668 0.535645C4.67383 0.535645 3.44531 1.87207 3.44531 3.78955V9.01074ZM4.69873 9.01074V3.78955C4.69873 2.56104 5.4043 1.77246 6.4668 1.77246C7.5293 1.77246 8.22656 2.56104 8.22656 3.78955V9.01074C8.22656 10.2393 7.5293 11.0278 6.4668 11.0278C5.4043 11.0278 4.69873 10.2393 4.69873 9.01074ZM0.523438 9.30957C0.523438 12.5635 2.67334 14.8462 5.83594 15.1118V17.0459H2.75635C2.40771 17.0459 2.12549 17.3281 2.12549 17.6768C2.12549 18.0254 2.40771 18.2993 2.75635 18.2993H10.1689C10.5176 18.2993 10.7998 18.0254 10.7998 17.6768C10.7998 17.3281 10.5176 17.0459 10.1689 17.0459H7.08936V15.1118C10.2603 14.8462 12.4019 12.5635 12.4019 9.30957V7.62451C12.4019 7.27588 12.1279 7.00195 11.7793 7.00195C11.4307 7.00195 11.1484 7.27588 11.1484 7.62451V9.25977C11.1484 12.0903 9.30566 13.9663 6.4668 13.9663C3.61963 13.9663 1.77686 12.0903 1.77686 9.25977V7.62451C1.77686 7.27588 1.50293 7.00195 1.146 7.00195C0.797363 7.00195 0.523438 7.27588 0.523438 7.62451V9.30957Z" fill="#9C9CA3"/>
</svg>
