<svg width="134" height="59" viewBox="0 0 134 59" fill="none" xmlns="http://www.w3.org/2000/svg">
<path d="M37.7993 26C37.7993 25.4477 38.247 25 38.7993 25H39.7993C40.3516 25 40.7993 25.4477 40.7993 26V34C40.7993 34.5523 40.3516 35 39.7993 35H38.7993C38.247 35 37.7993 34.5523 37.7993 34V26Z" fill="black"/>
<path d="M42.7993 24C42.7993 23.4477 43.247 23 43.7993 23H44.7993C45.3516 23 45.7993 23.4477 45.7993 24V34C45.7993 34.5523 45.3516 35 44.7993 35H43.7993C43.247 35 42.7993 34.5523 42.7993 34V24Z" fill="black"/>
<path d="M32.7993 29.5C32.7993 28.9477 33.247 28.5 33.7993 28.5H34.7993C35.3516 28.5 35.7993 28.9477 35.7993 29.5V34C35.7993 34.5523 35.3516 35 34.7993 35H33.7993C33.247 35 32.7993 34.5523 32.7993 34V29.5Z" fill="black"/>
<path d="M27.7993 32C27.7993 31.4477 28.247 31 28.7993 31H29.7993C30.3516 31 30.7993 31.4477 30.7993 32V34C30.7993 34.5523 30.3516 35 29.7993 35H28.7993C28.247 35 27.7993 34.5523 27.7993 34V32Z" fill="black"/>
<path fill-rule="evenodd" clip-rule="evenodd" d="M62.2998 25.5875C64.7663 25.5876 67.1386 26.5551 68.9262 28.2898C69.0608 28.4237 69.276 28.4221 69.4085 28.286L70.6953 26.9605C70.7624 26.8915 70.7999 26.798 70.7993 26.7008C70.7988 26.6035 70.7603 26.5105 70.6923 26.4423C66.0004 21.8526 58.5984 21.8526 53.9065 26.4423C53.8385 26.5105 53.8 26.6034 53.7993 26.7007C53.7987 26.7979 53.8361 26.8914 53.9031 26.9605L55.1903 28.286C55.3228 28.4223 55.5381 28.424 55.6726 28.2898C57.4605 26.5549 59.833 25.5875 62.2998 25.5875ZM62.3352 29.5894C63.6904 29.5893 64.9973 30.1035 66.0018 31.032C66.1377 31.1638 66.3518 31.1609 66.4842 31.0255L67.7695 29.7C67.8372 29.6304 67.8747 29.5361 67.8738 29.4381C67.8728 29.3401 67.8333 29.2466 67.7643 29.1784C64.7052 26.2739 59.9678 26.2739 56.9088 29.1784C56.8397 29.2466 56.8002 29.3401 56.7993 29.4382C56.7984 29.5362 56.8361 29.6305 56.9039 29.7L58.1889 31.0255C58.3213 31.1609 58.5353 31.1638 58.6712 31.032C59.6751 30.1041 60.9809 29.5899 62.3352 29.5894ZM64.9489 32.1767C64.9508 32.275 64.913 32.3698 64.8442 32.4386L62.621 34.7289C62.5558 34.7962 62.4669 34.834 62.3742 34.834C62.2815 34.834 62.1927 34.7962 62.1275 34.7289L59.9038 32.4386C59.8351 32.3697 59.7974 32.2749 59.7994 32.1766C59.8014 32.0783 59.8431 31.9853 59.9146 31.9194C61.3345 30.6935 63.414 30.6935 64.8339 31.9194C64.9053 31.9853 64.9469 32.0784 64.9489 32.1767Z" fill="black"/>
<path opacity="0.35" d="M82.7993 23.5H99.7993C101.732 23.5 103.299 25.067 103.299 27V32C103.299 33.933 101.732 35.5 99.7993 35.5H82.7993C80.8663 35.5 79.2993 33.933 79.2993 32V27C79.2993 25.067 80.8663 23.5 82.7993 23.5Z" stroke="black"/>
<path opacity="0.4" d="M104.799 28V32.2203C105.648 31.8629 106.201 31.0314 106.201 30.1102C106.201 29.1889 105.648 28.3574 104.799 28" fill="black"/>
<path d="M80.7993 27C80.7993 25.8954 81.6947 25 82.7993 25H93.7993C94.9039 25 95.7993 25.8954 95.7993 27V32C95.7993 33.1046 94.9039 34 93.7993 34H82.7993C81.6947 34 80.7993 33.1046 80.7993 32V27Z" fill="black"/>
</svg>
