<svg width="28" height="28" viewBox="0 0 28 28" fill="none" xmlns="http://www.w3.org/2000/svg">
<rect width="28" height="28" rx="14" fill="#34C759"/>
<path d="M13.9962 21C14.5607 21 14.9498 20.6252 14.9498 20.0667V11.358L14.8811 9.76325L16.6891 11.7328L18.4132 13.379C18.5887 13.5407 18.8175 13.6509 19.0922 13.6509C19.6109 13.6509 20 13.2835 20 12.769C20 12.5265 19.9008 12.2987 19.7025 12.1076L14.7057 7.28661C14.5226 7.10289 14.2556 7 13.9962 7C13.7368 7 13.4774 7.10289 13.2943 7.28661L8.29752 12.1076C8.09917 12.2987 8 12.5265 8 12.769C8 13.2835 8.38907 13.6509 8.90782 13.6509C9.18245 13.6509 9.41132 13.5407 9.58678 13.379L11.3032 11.7328L13.1113 9.76325L13.0502 11.358V20.0667C13.0502 20.6252 13.4317 21 13.9962 21Z" fill="white"/>
</svg>
